<?xml version="1.0" standalone="no"?>
<!DOCTYPE svg PUBLIC "-//W3C//DTD SVG 20010904//EN"
 "http://www.w3.org/TR/2001/REC-SVG-20010904/DTD/svg10.dtd">
<svg version="1.0" xmlns="http://www.w3.org/2000/svg"
 width="1280.000000pt" height="1122.000000pt" viewBox="0 0 1280.000000 1122.000000"
 preserveAspectRatio="xMidYMid meet">
<g transform="translate(0.000000,1122.000000) scale(0.100000,-0.100000)"
fill="#000000" stroke="none">
<path d="M13 11206 c-10 -11 0 -36 50 -128 35 -62 225 -404 422 -760 l360
-648 935 -757 c840 -682 1697 -1374 1807 -1461 l42 -33 31 46 c17 25 30 52 28
59 -2 8 -283 239 -625 514 -979 788 -1739 1407 -1805 1470 -63 60 -58 64 113
107 56 14 110 23 121 20 24 -8 278 -209 1427 -1133 503 -404 922 -737 930
-739 11 -2 50 42 116 129 55 72 133 167 174 210 72 77 74 80 55 97 -10 10
-224 182 -474 383 -1501 1202 -1826 1463 -1832 1472 -13 20 -28 330 -16 342 5
4 18 3 30 -3 13 -6 602 -474 1309 -1041 l1287 -1029 88 -5 c49 -3 90 -5 91 -4
2 2 38 -27 -1192 962 -539 433 -1162 934 -1385 1114 -223 179 -410 329 -416
333 -15 9 -1499 454 -1644 493 -8 2 -20 -2 -27 -10z m1253 -481 c55 -14 158
-44 229 -67 108 -34 136 -48 168 -78 l37 -38 0 -98 c0 -426 -109 -563 -576
-720 -115 -39 -144 -41 -166 -16 -26 28 -248 470 -248 492 0 14 32 40 113 93
169 111 202 153 272 352 25 72 46 105 66 105 4 0 51 -11 105 -25z"/>
<path d="M5652 9483 c-84 -29 -135 -95 -397 -505 -144 -226 -278 -424 -321
-475 -131 -156 -136 -195 -31 -271 99 -72 173 -110 457 -232 157 -67 318 -138
358 -156 120 -56 205 -45 282 38 43 46 593 899 618 958 20 47 11 112 -22 155
-15 19 -55 54 -89 79 -137 97 -631 406 -665 416 -52 14 -139 11 -190 -7z"/>
<path d="M6890 8887 c-58 -16 -112 -49 -145 -89 -15 -17 -132 -209 -262 -427
-130 -218 -258 -429 -285 -469 -46 -68 -78 -137 -78 -168 0 -8 12 -27 28 -44
28 -31 99 -64 376 -176 218 -88 309 -143 343 -207 20 -39 15 -92 -28 -267 -53
-217 -45 -411 16 -402 32 5 164 147 260 281 50 69 134 172 188 230 92 99 115
133 343 513 135 224 251 426 259 449 34 95 7 222 -63 296 -36 39 -659 421
-755 463 -58 26 -141 33 -197 17z"/>
<path d="M4444 8166 c-110 -56 -209 -157 -420 -426 -140 -179 -185 -248 -200
-302 -17 -64 -52 -118 -128 -194 -110 -110 -482 -762 -629 -1104 -66 -155 -80
-205 -74 -260 12 -98 115 -267 365 -599 635 -841 684 -910 867 -1216 191 -319
264 -426 579 -855 204 -277 266 -377 266 -430 0 -19 -29 -202 -65 -405 -209
-1181 -287 -1746 -289 -2075 -1 -189 10 -266 40 -291 11 -9 313 -9 1232 0 669
6 1409 13 1644 14 365 2 429 4 441 17 9 10 19 60 26 140 6 69 18 154 27 190
13 55 17 188 24 865 7 783 14 965 50 1294 12 109 20 125 121 237 74 84 130
163 197 282 23 40 58 93 79 118 36 44 36 45 17 63 -10 10 -206 169 -434 352
-804 647 -1316 1061 -1415 1146 -116 99 -604 467 -611 461 -4 -4 345 -435 558
-688 59 -70 95 -123 109 -160 11 -30 49 -125 84 -210 35 -85 96 -245 135 -355
40 -110 87 -232 105 -272 19 -40 41 -98 50 -130 39 -136 118 -246 226 -315 62
-40 82 -61 77 -82 -6 -28 -160 -135 -217 -152 -68 -21 -119 -66 -131 -119 -22
-94 -8 -821 29 -1569 10 -201 3 -249 -36 -254 -34 -5 -41 27 -42 179 -1 166
-26 448 -45 509 -9 29 -14 97 -14 195 0 102 -8 214 -26 349 -29 218 -80 531
-96 586 -5 19 -13 76 -16 127 -4 51 -13 101 -20 111 -11 15 -39 18 -231 23
-120 3 -219 7 -220 8 -15 12 -33 34 -33 41 0 4 37 19 83 34 139 44 354 180
484 307 99 98 101 103 54 191 -155 295 -1042 1607 -1374 2033 -112 144 -137
160 -372 236 -88 28 -186 67 -217 86 -102 61 -186 93 -309 117 -119 24 -165
43 -176 73 -9 22 20 40 84 53 38 8 67 22 93 46 58 52 111 136 121 191 5 26 23
67 39 89 31 43 60 135 60 189 0 16 -9 62 -20 100 -21 73 -19 122 6 132 27 10
154 -96 381 -321 l233 -229 117 1 c172 1 373 45 629 137 165 60 254 101 287
133 34 32 79 116 101 192 42 140 62 416 34 452 -101 129 -1922 904 -2195 934
-39 4 -58 0 -99 -20z"/>
<path d="M7960 7821 c-50 -16 -106 -50 -136 -83 -47 -49 -1194 -1694 -1226
-1757 -23 -44 -28 -66 -27 -125 1 -82 12 -117 57 -181 30 -43 48 -54 220 -136
103 -50 255 -124 337 -165 172 -87 223 -98 318 -70 42 12 70 30 112 69 70 66
1177 1467 1207 1527 34 67 32 186 -4 255 -34 66 -583 612 -648 645 -48 25
-164 36 -210 21z"/>
<path d="M8992 6813 c-12 -5 -1242 -1469 -1305 -1555 -32 -42 -43 -97 -33
-154 6 -30 41 -72 202 -239 211 -221 241 -242 319 -230 22 3 51 12 64 19 45
25 1449 1386 1465 1421 24 51 29 87 17 132 -9 34 -53 84 -262 296 -208 213
-260 261 -311 286 -58 29 -120 39 -156 24z"/>
<path d="M6280 6324 c-530 -147 -612 -162 -701 -133 -47 16 -72 41 -120 121
-44 75 -72 93 -126 83 -18 -3 -46 -17 -63 -31 -26 -23 -30 -32 -30 -77 0 -48
3 -53 54 -103 29 -29 132 -104 227 -167 281 -185 532 -316 582 -303 15 3 47
35 79 78 31 40 155 189 276 330 200 233 242 285 242 302 0 14 -69 -2 -420
-100z"/>
<path d="M5040 6374 c-27 -61 -25 -76 9 -102 32 -23 41 -20 41 13 0 13 7 40
16 61 15 37 15 38 -8 56 -12 9 -27 18 -31 18 -4 0 -17 -21 -27 -46z"/>
<path d="M6375 5815 c-19 -22 -35 -44 -35 -50 0 -11 121 -115 134 -115 4 0 -1
14 -10 31 -9 18 -20 59 -24 92 -12 82 -22 89 -65 42z"/>
<path d="M5852 5632 c18 -16 546 -440 1173 -942 1136 -911 2379 -1911 3015
-2425 184 -149 676 -547 1094 -884 l758 -614 97 7 c360 25 574 118 697 303 48
72 70 132 96 257 21 103 21 161 0 396 l-7 75 -935 753 c-2568 2069 -3021 2432
-3033 2432 -7 0 -27 -15 -45 -33 l-32 -33 818 -656 c449 -361 1143 -918 1542
-1238 399 -320 737 -592 752 -605 19 -18 28 -37 32 -72 4 -26 15 -102 26 -167
29 -177 26 -178 -150 -42 -451 345 -897 699 -1530 1211 -775 628 -1683 1357
-1693 1361 -7 2 -57 -38 -113 -89 -136 -126 -207 -153 -326 -122 -129 33 -243
129 -439 370 -79 97 -108 140 -113 170 -17 91 -51 115 -161 115 -53 0 -75 6
-141 39 -44 22 -135 62 -204 89 -69 28 -142 58 -163 67 -22 9 -36 11 -32 6 3
-6 601 -489 1328 -1073 3408 -2739 3347 -2689 3347 -2710 0 -15 -61 -35 -174
-58 -128 -26 -123 -27 -245 68 -123 95 -1603 1282 -3411 2736 l-1555 1250 -67
7 c-42 5 -98 21 -149 43 -45 20 -84 36 -86 36 -2 0 11 -13 29 -28z m6424
-3555 c219 -164 362 -284 382 -320 24 -45 24 -274 -1 -367 -24 -89 -67 -174
-124 -245 -60 -74 -125 -123 -228 -175 -82 -41 -275 -110 -306 -110 -21 0 -83
47 -344 256 -221 177 -268 220 -262 237 2 6 44 20 93 30 121 25 281 89 351
141 155 114 220 245 238 481 12 168 15 185 34 185 9 0 85 -51 167 -113z"/>
<path d="M9129 5317 c-50 -31 -229 -189 -229 -202 1 -12 233 -199 246 -197 13
2 43 221 43 318 1 100 -9 113 -60 81z"/>
</g>
</svg>
